PathFileType	4	(X/Y/Z)	pose_F01_0-94.trc
DataRate	CameraRate	NumFrames	NumMarkers	Units	OrigDataRate	OrigDataStartFrame	OrigNumFrames
30	30	8	21	m	30	0	94
Frame#	Time	CHip			RHip			RKnee			RAnkle			RBigToe			RSmallToe			RHeel			LHip			LKnee			LAnkle			LBigToe			LSmallToe			LHeel			Neck			Nose			RShoulder			RElbow			RWrist			LShoulder			LElbow			LWrist			
		X1	Y1	Z1	X2	Y2	Z2	X3	Y3	Z3	X4	Y4	Z4	X5	Y5	Z5	X6	Y6	Z6	X7	Y7	Z7	X8	Y8	Z8	X9	Y9	Z9	X10	Y10	Z10	X11	Y11	Z11	X12	Y12	Z12	X13	Y13	Z13	X14	Y14	Z14	X15	Y15	Z15	X16	Y16	Z16	X17	Y17	Z17	X18	Y18	Z18	X19	Y19	Z19	X20	Y20	Z20	X21	Y21	Z21	
0	0.0	-0.28132049707167145	1.8760376120657112	-0.6376275402406779	-0.29675126710045774	1.883405670076927	-0.5796342649708922																-0.26558730712383605	1.8852727155569808	-0.7030759499233001																-0.28293478445838466	2.047267600410117	-0.6526274048196292	-0.2702685510477886	2.111822177462146	-0.6359125941261244	-0.30026106070408665	2.043122844523498	-0.5572913818852916	-1.5557875391983376	1.8752810301052758	0.7649777929508839	-0.31747756471668126	1.8942004154103151	-0.5137575504468519	-0.24749550232881407	2.052627722471502	-0.7413798912338775	-0.24463806690105866	1.9689065912487664	-0.775165694240631	-1.126240361035774	1.8020462564413644	0.0625420248227182
1	0.03333333333333333	-0.2812156472300335	1.8785738644330965	-0.6379557653604229	-0.29672504832560104	1.8831307337738563	-0.5797513708726806																-0.26565165533043744	1.8864763694045037	-0.7031520358906642																-0.282938739393468	2.0475058719045536	-0.6526532272593266	-0.2702541886527885	2.1131191998589425	-0.6363268961537282	-0.3012017111180525	2.0432420457827773	-0.5602442430183852	-1.5542147534384634	1.8725135746656256	0.7630571433543402	-0.31620365317934734	1.8914751265357261	-0.5102481499845498	-0.25044940469191657	2.0528191371764035	-0.7421247291997879	-0.2468467704328432	1.9691061801779546	-0.7729320899479555	-1.129460626144885	1.7998196980129713	0.07012078689592918
2	0.06666666666666667	-0.28111079738839556	1.8811101168004818	-0.6382839904801678	-0.29669882955074434	1.8828557974707856	-0.579868476774469																-0.26571600353703884	1.8876800232520266	-0.7032281218580283																-0.2829426943285513	2.0477441433989902	-0.652679049699024	-0.2702398262577884	2.114416222255739	-0.6367411981813319	-0.30214236153201834	2.0433612470420566	-0.5631971041514787	-1.5526419676785892	1.8697461192259754	0.7611364937577965	-0.3149297416420134	1.8887498376611371	-0.5067387495222477	-0.25340330705501907	2.053010551881305	-0.7428695671656983	-0.24905547396462774	1.9693057691071427	-0.77069848565528	-1.1326808912539958	1.7975931395845781	0.07769954896914016
3	0.1	-0.2810059475467576	1.883646369167867	-0.6386122155999128	-0.29667261077588764	1.8825808611677148	-0.5799855826762573																-0.26578035174364023	1.8888836770995494	-0.7033042078253924																-0.2829466492636346	2.047982414893427	-0.6527048721387214	-0.27022546386278834	2.1157132446525355	-0.6371555002089356	-0.3030830119459842	2.043480448301336	-0.5661499652845723	-1.551069181918715	1.8669786637863253	0.7592158441612528	-0.3136558301046795	1.8860245487865481	-0.5032293490599457	-0.25635720941812157	2.0532019665862067	-0.7436144051316087	-0.2512641774964123	1.9695053580363309	-0.7684648813626045	-1.1359011563631067	1.795366581156185	0.08527831104235115
4	0.13333333333333333	-0.2809010977051197	1.8861826215352524	-0.6389404407196577	-0.29664639200103093	1.882305924864644	-0.5801026885780457																-0.2658446999502416	1.8900873309470723	-0.7033802937927565																-0.2829506041987179	2.0482206863878636	-0.6527306945784188	-0.27021110146778826	2.117010267049332	-0.6375698022365394	-0.30402366235995004	2.043599649560615	-0.5691028264176659	-1.5494963961588408	1.864211208346675	0.7572951945647091	-0.3123819185673456	1.8832992599119591	-0.49971994859764357	-0.25931111178122407	2.0533933812911083	-0.7443592430975191	-0.2534728810281968	1.969704946965519	-0.766231277069929	-1.1391214214722176	1.7931400227277918	0.09285707311556213
5	0.16666666666666666	-0.2787328451160518	1.8850703496962007	-0.6409011981416922	-0.29447595071141847	1.8839148023319752	-0.5822894193935705																-0.2635096928575902	1.8902185443792816	-0.7054664461476692																-0.2829752937835874	2.0480010876182675	-0.6526973894995829	-0.27022356772117634	2.11569553761784	-0.6370610177798793	-0.30402198300386146	2.043582203796198	-0.569139023301252	-1.5495828213312888	1.864240998831762	0.7574420343143412	-0.3130709255881049	1.8858823851311033	-0.5030538887826855	-0.25849987879937547	2.0532365115037443	-0.7414256094603129	-0.2511237346557147	1.96983176901858	-0.7681325482585746	-1.1335718341883423	1.7925473465008341	0.08291224450824539
6	0.2	-0.2809502006378799	1.8863459385232775	-0.6388394008259144	-0.29676713554460826	1.8840094764128117	-0.5801780888075616																-0.2658840559180145	1.8903064543670975	-0.7033107563077861																-0.2829653315067055	2.048120818553798	-0.6527224281455791	-0.26933896380668515	2.1168662144570747	-0.634708461085686	-0.3040367615972204	2.043696585140442	-0.56909413422806	-1.5512608640591505	1.8663546175140064	0.7596591148403499	-0.3133259951567936	1.8864222387233673	-0.503210781368565	-0.2593046755327422	2.053228338734148	-0.7443836492625442	-0.2513014367613878	1.969584769704063	-0.7683836703698115	-1.1303718955965583	1.7950386910344243	0.07512112749063556
7	0.23333333333333334	-0.2810703397099658	1.8849175939215745	-0.6386745241504422	-0.29585170577468334	1.881322803300543	-0.5768370579781741																-0.2651549516322237	1.8885972201332195	-0.7001937041427908																-0.282964652784463	2.048111623294121	-0.6527363198088264	-0.27022165861715847	2.115692247667825	-0.6369910384941725	-0.30406362471453696	2.043733156005613	-0.5691349487230943	-1.5508968431964965	1.8668538478325962	0.7589488900550037	-0.3103873062571548	1.8854879187359805	-0.5022222428581425	-0.2584811019885203	2.0531576722096685	-0.7414991763066014	-0.25123305132633555	1.968557425213598	-0.7681848313629607	-1.1386894418647235	1.7931326034625197	0.09246777382569152
